HIERARCHY
ROOT Hips
{
  OFFSET 0 0 0
  CHANNELS 6 Xposition Yposition Zposition Zrotation Xrotation Yrotation
  JOINT Spine
  {
    OFFSET 0 10.1816 0.131521
    CHANNELS 3 Zrotation Xrotation Yrotation
    JOINT Spine1
    {
      OFFSET 0 10.0835 -1.0008
      CHANNELS 3 Zrotation Xrotation Yrotation
      JOINT Spine2
      {
        OFFSET 0 9.10001 -1.37342
        CHANNELS 3 Zrotation Xrotation Yrotation
        JOINT Neck
        {
          OFFSET 0 16.6717 -2.51617
          CHANNELS 3 Zrotation Xrotation Yrotation
          JOINT Head
          {
            OFFSET 0 9.61788 1.68501
            CHANNELS 3 Zrotation Xrotation Yrotation
            End Site
            {
              OFFSET 0 0 0
            }
          }
        }
        JOINT LeftShoulder
        {
          OFFSET 4.57045 10.946 -2.62799
          CHANNELS 3 Zrotation Xrotation Yrotation
          JOINT LeftArm
          {
            OFFSET 10.5924 -0.524583 -2.23212
            CHANNELS 3 Zrotation Xrotation Yrotation
            JOINT LeftForeArm
            {
              OFFSET 27.8415 -8.94286e-05 3.74589e-05
              CHANNELS 3 Zrotation Xrotation Yrotation
              JOINT LeftHand
              {
                OFFSET 28.3288 -1.74407e-05 3.78045e-05
                CHANNELS 3 Zrotation Xrotation Yrotation
                End Site
                {
                  OFFSET 0 0 0
                }
              }
            }
          }
        }
        JOINT RightShoulder
        {
          OFFSET -4.56997 10.9462 -2.62802
          CHANNELS 3 Zrotation Xrotation Yrotation
          JOINT RightArm
          {
            OFFSET -10.5928 -0.524798 -2.2321
            CHANNELS 3 Zrotation Xrotation Yrotation
            JOINT RightForeArm
            {
              OFFSET -27.8415 -3.30792e-05 1.16763e-05
              CHANNELS 3 Zrotation Xrotation Yrotation
              JOINT RightHand
              {
                OFFSET -28.3288 0 5.5816e-05
                CHANNELS 3 Zrotation Xrotation Yrotation
                End Site
                {
                  OFFSET 0 0 0
                }
              }
            }
          }
        }
      }
    }
  }
  JOINT LeftUpLeg
  {
    OFFSET 8.20778 -6.75171 -1.59956
    CHANNELS 3 Zrotation Xrotation Yrotation
    JOINT LeftLeg
    {
      OFFSET 0 -44.3705 0.284643
      CHANNELS 3 Zrotation Xrotation Yrotation
      JOINT LeftFoot
      {
        OFFSET 0 -44.4279 -2.98219
        CHANNELS 3 Zrotation Xrotation Yrotation
        JOINT LeftToeBase
        {
          OFFSET 0 -8.72867 10.7106
          CHANNELS 3 Zrotation Xrotation Yrotation
          End Site
          {
            OFFSET 0 0 0
          }
        }
      }
    }
  }
  JOINT RightUpLeg
  {
    OFFSET -8.2078 -6.75166 -1.59956
    CHANNELS 3 Zrotation Xrotation Yrotation
    JOINT RightLeg
    {
      OFFSET 0 -44.3705 0.286156
      CHANNELS 3 Zrotation Xrotation Yrotation
      JOINT RightFoot
      {
        OFFSET 0 -44.4277 -2.98379
        CHANNELS 3 Zrotation Xrotation Yrotation
        JOINT RightToeBase
        {
          OFFSET 0 -8.72867 10.7106
          CHANNELS 3 Zrotation Xrotation Yrotation
          End Site
          {
            OFFSET 0 0 0
          }
        }
      }
    }
  }
}
MOTION
Frames: 8
Frame Time:	0.0333333
64.5625 88.9918 70.7615 -2.54717 -1.25853 -123.882 -3.81241  12.7528  6.67895 -0.0521177  -0.528272   0.581094 0.325221 0.432324  1.08827 -4.73757  5.50368  3.23497 -5.49375  9.67028   8.1634 -8.10522  1.13871  4.65134 -59.2977  2.39135 -32.2728 -0.190252  0.616313  -116.233  2.69142  14.5073 -1.86926 -2.99356  3.08928  13.7307 60.7751   19.14 34.4062 0.295526 0.276829   112.62 -10.8712 -5.05406  8.62247   20.011 -29.5521  17.6187 10.4736 46.9198 -14.871 -18.2369 -13.1336 -14.6652   1.11549 -0.745334   0.37878 -27.5054 -4.39567 -17.6129 -10.6165  43.1628  4.29157   22.224 -17.5798  2.51024    2.14513   -9.21964 -0.0758135 
 65.221  89.024 70.3326 -2.77883 -1.89414 -123.438  -4.811 12.9623 7.16939  -0.64988 -0.603059  0.404843 0.198167  1.02452  1.31929 -4.8551  5.7213 3.24904 -5.35838  9.14959  8.02772 -8.33758  1.12993  4.69571 -59.5445  1.93178 -32.4745 -0.376911   1.10429  -116.548  2.64991  14.4817 -1.84341 -3.0214 3.32191 14.0368 61.4608 18.9447 34.0711 0.500714 0.565411  113.121 -10.5975 -5.42824  7.82406  19.8941 -29.7599  17.9061  10.1772  46.1448 -14.6368  -18.518 -11.5332 -15.3712  1.79625 -1.45022 0.626702 -27.5421 -4.75932 -17.3147 -10.4857  43.5371  4.20197 22.8698 -17.167 2.47475   3.93868  -9.24799 -0.117281 
66.3647 90.1482 69.6983 -2.15005 -2.68783 -122.334 -5.45839  12.9478  7.39616  -1.34227 -0.506729  0.291615 -0.372128   1.50405   1.73212 -5.06879   6.3815  2.86922 -5.34965   8.4486  7.85323 -8.44491 0.801989  4.80908 -59.7027  1.21927 -33.0329 -0.687123   1.19947  -116.891  3.55822   14.337 -2.10693 -2.76553  3.47949  14.7188 61.9267 18.0812 33.6724 0.642451 0.559073  114.088 -10.1712 -5.90798  6.99702   20.016 -29.7224  18.4235  8.83338  42.3301 -13.6988 -18.1924 -6.84674 -15.4793  2.50768 -3.15587 0.560641 -27.2265 -5.19259 -17.6486 -9.09854  42.7111  3.60662  22.9865 -15.2387  1.95558    4.8041  -8.22725 -0.456969 
67.8834 91.5333 69.0627 -0.865339  -3.36318  -121.363 -5.81536  13.0577  7.45965  -1.96047 -0.198496  0.205454 -0.942308   1.86214   2.13844 -5.35413  6.93023   2.4497 -5.32528  7.66569  7.59178 -8.33201 0.410152  4.75043 -59.6713 0.229317 -34.1369 -0.993387   1.14636  -117.436  5.0197 14.1607 -2.6598 -2.56101  3.44447   15.628 62.2159 16.8033 33.4792 0.709635 0.426574  115.372 -10.1723 -6.46688  6.27683  20.6135 -29.6886  19.2419  7.27335  37.2158 -12.6998  -17.8139 -0.997132  -14.8817  3.29323  -5.2009 0.292402 -26.5015 -5.77996 -18.2756 -6.86936  40.9861  2.58066 22.5377  -14.13 1.46875   5.18582  -7.58487 -0.816707 
69.4548 92.4639 68.5166 0.562464 -3.44546 -120.069 -5.54062  13.2794  7.09832 -2.10716 0.363532 0.110808 -1.14077  2.21466  2.15009 -5.47337  7.34172  2.26775 -5.04951  6.93989  7.20288 -8.19696 0.234704  4.16504   -59.267 -0.739903  -35.5363 -1.04115   1.1266 -118.021  6.50541  14.0406 -3.12225 -2.4952 3.29656 16.4959 62.2508 15.1765 33.1772 0.647677 0.220543  116.705 -10.4829 -6.90668  5.91691  21.5922 -29.9115  20.3564  6.08199  32.6821 -11.6321 -17.7554  3.64567 -13.3439  3.58331 -5.96885 0.241053 -25.4314 -6.28394 -18.7796 -4.72008  39.7602  1.75258  21.6169 -13.9034  1.22939   4.78812  -6.96703 -0.971062 
70.8103 92.5598 68.0611  1.45502  -2.9534 -118.498 -4.79101  13.6923  6.44789  -1.70114  0.908122 -0.085489 -0.952123   2.64807   1.95462 -5.51639  7.50533  2.28077 -4.66011  6.63283  6.88109 -8.10137 0.354796  3.20215 -58.7285 -1.36037 -36.9372 -0.958822   1.24701  -118.501  7.49656  14.0279 -3.58367 -2.47013  3.03628  17.0235 62.2542 13.6381 32.8202    0.45062 0.00773863    117.896 -10.9857 -7.19285   5.8465  22.5616 -30.3952  21.2359  5.51733   30.232 -10.5844 -18.1164  5.34325 -11.6979  3.54473 -5.98152 0.171536 -24.3243  -6.4382 -19.2196 -3.14193  39.8914  1.11534  20.5246 -15.1405  1.16342  4.25541 -6.78932 -1.23337 
71.9006 91.9265 67.6174  1.44646 -2.23979 -116.781  -3.911  14.201 5.62801  -1.03281   1.22544 -0.411253 -0.49969  3.23364  1.82796 -5.66517  7.42621  2.38273 -4.31233  6.58821  6.84538 -8.02472 0.684627  2.21644 -58.3438 -1.33925 -38.0572  -1.0509  1.40207 -118.927  7.80668  14.1519 -4.19226 -2.57457  2.59747  17.1791 62.2066  12.649 32.5058  0.412731 -0.195193   118.842  -11.742 -7.28509  5.85492  23.1771 -31.1752  21.5349  5.46958  30.1893 -9.70149 -18.6891  4.59304 -10.1581  3.50315 -6.11305 0.346542  -23.287 -6.10346 -19.1775 -2.73026  41.1524  1.10864  19.7973 -17.6791  1.28934  4.22441 -6.97906 -1.36372 
72.7012 90.8857 67.0849 0.615524  -1.4861 -114.979 -2.96033  14.5794  4.93337 -0.409674   1.28972  -0.67874 -0.0827623    3.83578    1.77795 -5.74708  7.21791   2.4846 -3.96242   6.6712  6.92579 -8.04246  1.04847  1.44083  -58.2896 -0.705131    -38.49 -1.23359   1.5211 -119.271   7.6631  14.3458 -4.74825 -2.65179  2.05738  16.8071 62.2128    12.4  32.122 0.449921 -0.37501  119.391 -12.4721 -7.42696  6.04121  23.6735 -32.0195  21.2979  5.39126  31.9753 -9.16147 -18.8291  2.77908 -9.02683  3.34721  -6.8604 0.656896 -22.4812 -5.19491  -18.745 -2.7846 43.1998 1.14513  20.0701 -21.3262  1.80749  3.56737 -7.29455 -1.55306 
